# xmcd
#
# Track frame offsets:
#	150
#	19398
#	36627
#	46700
#	69150
#	84741
#	99098
#	112263
#	127069
#	141605
#	160737
#	174501
#	191041
#	205994
#	223426
#
# Disc length: 3124 seconds
#
# Revision: 1
# Processed by: cddbd v1.5.2PL0 Copyright (c) Steve Scherf et al.
# Submitted via: audiograbber 1.83.01
#
DISCID=e80c320f
DTITLE=Alabama City - In the Year 2000
DYEAR=1900
DGENRE=Country
TTITLE0=Road to Hell
TTITLE1=Chattahoochee
TTITLE2=Heartbreak Mountain
TTITLE3=Knockin´ on heaven´s door
TTITLE4=American honky-tonk bar association
TTITLE5=Poor house
TTITLE6=Dej mi hlavu
TTITLE7=Without you
TTITLE8=Blues folsomské veznice
TTITLE9=I shot the sheriff
TTITLE10=Only time will tell
TTITLE11=Always on my mind
TTITLE12=Achy breaky heart
TTITLE13=Nemakatchenko
TTITLE14=Dueling Banjos
EXTD=
EXTT0=
EXTT1=
EXTT2=
EXTT3=
EXTT4=
EXTT5=
EXTT6=
EXTT7=
EXTT8=
EXTT9=
EXTT10=
EXTT11=
EXTT12=
EXTT13=
EXTT14=
PLAYORDER=
